<?xml version="1.0" encoding="UTF-8"?>
<!DOCTYPE svg PUBLIC "-//W3C//DTD SVG 1.1//EN" "http://www.w3.org/Graphics/SVG/1.1/DTD/svg11.dtd">
<svg xmlns="http://www.w3.org/2000/svg" version="1.1" width="613px" height="407px" style="shape-rendering:geometricPrecision; text-rendering:geometricPrecision; image-rendering:optimizeQuality; fill-rule:evenodd; clip-rule:evenodd" xmlns:xlink="http://www.w3.org/1999/xlink">
<g><path style="opacity:1" fill="#ef532f" d="M 345.5,124.5 C 346.404,125.209 346.737,126.209 346.5,127.5C 333.57,151.189 320.237,174.689 306.5,198C 278.155,198.738 249.821,198.404 221.5,197C 222.471,195.519 223.804,194.685 225.5,194.5C 227.027,194.573 228.027,193.906 228.5,192.5C 231.24,190.44 234.24,188.774 237.5,187.5C 239.027,187.573 240.027,186.906 240.5,185.5C 243.24,183.44 246.24,181.774 249.5,180.5C 251.027,180.573 252.027,179.906 252.5,178.5C 255.24,176.44 258.24,174.774 261.5,173.5C 263.027,173.573 264.027,172.906 264.5,171.5C 267.24,169.44 270.24,167.774 273.5,166.5C 275.027,166.573 276.027,165.906 276.5,164.5C 276.842,163.662 277.508,163.328 278.5,163.5C 280.027,163.573 281.027,162.906 281.5,161.5C 284.24,159.44 287.24,157.774 290.5,156.5C 292.027,156.573 293.027,155.906 293.5,154.5C 294.514,153.326 295.847,152.66 297.5,152.5C 299.027,152.573 300.027,151.906 300.5,150.5C 308.832,144.998 317.499,139.998 326.5,135.5C 328.027,135.573 329.027,134.906 329.5,133.5C 329.842,132.662 330.508,132.328 331.5,132.5C 333.027,132.573 334.027,131.906 334.5,130.5C 335.514,129.326 336.847,128.66 338.5,128.5C 340.027,128.573 341.027,127.906 341.5,126.5C 342.514,125.326 343.847,124.66 345.5,124.5 Z"/></g>
<g><path style="opacity:0.369" fill="#fdd2c8" d="M 345.5,124.5 C 346.472,123.249 347.139,123.582 347.5,125.5C 347.457,126.416 347.124,127.083 346.5,127.5C 346.737,126.209 346.404,125.209 345.5,124.5 Z"/></g>
<g><path style="opacity:0.816" fill="#faa38e" d="M 341.5,126.5 C 341.027,127.906 340.027,128.573 338.5,128.5C 338.973,127.094 339.973,126.427 341.5,126.5 Z"/></g>
<g><path style="opacity:0.749" fill="#fcb09d" d="M 334.5,130.5 C 334.027,131.906 333.027,132.573 331.5,132.5C 331.973,131.094 332.973,130.427 334.5,130.5 Z"/></g>
<g><path style="opacity:0.8" fill="#fba893" d="M 329.5,133.5 C 329.027,134.906 328.027,135.573 326.5,135.5C 326.973,134.094 327.973,133.427 329.5,133.5 Z"/></g>
<g><path style="opacity:0.831" fill="#faa18b" d="M 300.5,150.5 C 300.027,151.906 299.027,152.573 297.5,152.5C 297.973,151.094 298.973,150.427 300.5,150.5 Z"/></g>
<g><path style="opacity:0.78" fill="#fbaa96" d="M 293.5,154.5 C 293.027,155.906 292.027,156.573 290.5,156.5C 290.973,155.094 291.973,154.427 293.5,154.5 Z"/></g>
<g><path style="opacity:0.812" fill="#fba894" d="M 281.5,161.5 C 281.027,162.906 280.027,163.573 278.5,163.5C 278.973,162.094 279.973,161.427 281.5,161.5 Z"/></g>
<g><path style="opacity:0.867" fill="#fba28c" d="M 276.5,164.5 C 276.027,165.906 275.027,166.573 273.5,166.5C 273.973,165.094 274.973,164.427 276.5,164.5 Z"/></g>
<g><path style="opacity:0.824" fill="#faa590" d="M 264.5,171.5 C 264.027,172.906 263.027,173.573 261.5,173.5C 261.973,172.094 262.973,171.427 264.5,171.5 Z"/></g>
<g><path style="opacity:0.82" fill="#fba690" d="M 252.5,178.5 C 252.027,179.906 251.027,180.573 249.5,180.5C 249.973,179.094 250.973,178.427 252.5,178.5 Z"/></g>
<g><path style="opacity:0.843" fill="#faa48e" d="M 240.5,185.5 C 240.027,186.906 239.027,187.573 237.5,187.5C 237.973,186.094 238.973,185.427 240.5,185.5 Z"/></g>
<g><path style="opacity:0.8" fill="#fba995" d="M 228.5,192.5 C 228.027,193.906 227.027,194.573 225.5,194.5C 225.973,193.094 226.973,192.427 228.5,192.5 Z"/></g>
<g><path style="opacity:0.999" fill="#5586d4" d="M 171.5,202.5 C 178.422,202.188 185.256,202.521 192,203.5C 192.667,215.167 192.667,226.833 192,238.5C 190.377,244.457 186.877,248.957 181.5,252C 173.523,255.914 165.19,257.08 156.5,255.5C 155.067,251.035 153.734,246.535 152.5,242C 152.645,241.228 152.978,240.561 153.5,240C 160.748,240.334 166.248,237.501 170,231.5C 170.192,221.756 170.692,212.09 171.5,202.5 Z"/></g>
<g><path style="opacity:1" fill="#5586d4" d="M 221.5,202.5 C 229.431,202.591 237.265,203.258 245,204.5C 253.183,219.343 261.35,234.177 269.5,249C 269.355,249.772 269.022,250.439 268.5,251C 262.828,253.17 257.162,255.336 251.5,257.5C 250.558,257.392 249.725,257.059 249,256.5C 247.291,253.582 245.458,250.748 243.5,248C 235.167,247.333 226.833,247.333 218.5,248C 216.873,250.754 215.373,253.588 214,256.5C 213.439,257.022 212.772,257.355 212,257.5C 206.318,254.825 200.651,252.159 195,249.5C 194.48,247.711 194.813,246.044 196,244.5C 204.001,230.043 212.501,216.043 221.5,202.5 Z M 230.5,220.5 C 234.671,224.16 237.338,228.826 238.5,234.5C 233.456,234.827 228.456,234.494 223.5,233.5C 225.591,228.98 227.925,224.647 230.5,220.5 Z"/></g>
<g><path style="opacity:1" fill="#4e82d3" d="M 306.5,204.5 C 316.476,203.456 324.976,206.456 332,213.5C 337.533,224.528 335.033,233.362 324.5,240C 315.94,243.864 306.94,245.697 297.5,245.5C 297.813,249.042 297.479,252.375 296.5,255.5C 289.833,255.5 283.167,255.5 276.5,255.5C 276.5,238.5 276.5,221.5 276.5,204.5C 286.5,204.5 296.5,204.5 306.5,204.5 Z M 304.5,219.5 C 307.338,220.17 309.838,221.504 312,223.5C 313.042,226.804 311.875,228.971 308.5,230C 304.654,231.508 300.821,231.675 297,230.5C 296.502,227.183 296.335,223.85 296.5,220.5C 299.054,219.612 301.721,219.279 304.5,219.5 Z"/></g>
<g><path style="opacity:0.999" fill="#5485d4" d="M 355.5,204.5 C 363.507,204.334 371.507,204.5 379.5,205C 387.46,218.418 395.293,231.918 403,245.5C 403.667,247.5 403.667,249.5 403,251.5C 397.333,253.833 391.667,256.167 386,258.5C 383.71,255.42 381.543,252.253 379.5,249C 370.814,248.168 362.147,248.335 353.5,249.5C 352.333,251.833 351.167,254.167 350,256.5C 349.275,257.059 348.442,257.392 347.5,257.5C 341.253,255.71 335.586,252.876 330.5,249C 338.698,234.106 347.031,219.273 355.5,204.5 Z M 374.5,234.5 C 369.056,235.108 364.056,234.442 359.5,232.5C 362.225,228.732 364.725,224.732 367,220.5C 369.767,225.035 372.267,229.701 374.5,234.5 Z"/></g>
<g><path style="opacity:0.999" fill="#5485d4" d="M 425.5,204.5 C 432.422,204.188 439.256,204.521 446,205.5C 446.939,217.904 446.606,230.238 445,242.5C 442.557,248.818 438.057,252.985 431.5,255C 425.043,257.162 418.543,257.996 412,257.5C 410.185,252.237 408.685,246.903 407.5,241.5C 414.132,241.766 419.632,239.432 424,234.5C 425.395,224.566 425.895,214.566 425.5,204.5 Z"/></g>
<g><path style="opacity:0.125" fill="#d4e1f4" d="M 304.5,219.5 C 301.721,219.279 299.054,219.612 296.5,220.5C 297.334,219.252 298.667,218.585 300.5,218.5C 302.045,218.511 303.378,218.844 304.5,219.5 Z"/></g>
<g><path style="opacity:0.522" fill="#98b6e5" d="M 306.5,204.5 C 296.5,204.5 286.5,204.5 276.5,204.5C 276.5,221.5 276.5,238.5 276.5,255.5C 283.167,255.5 289.833,255.5 296.5,255.5C 289.687,256.491 282.687,256.825 275.5,256.5C 275.5,238.833 275.5,221.167 275.5,203.5C 286.014,203.172 296.347,203.506 306.5,204.5 Z"/></g>
<g><path style="opacity:0.021" fill="#f4f7fc" d="M 359.5,232.5 C 364.056,234.442 369.056,235.108 374.5,234.5C 369.36,235.488 364.026,235.821 358.5,235.5C 358.263,234.209 358.596,233.209 359.5,232.5 Z"/></g>
<g><path style="opacity:0.682" fill="#f59a85" d="M 257.5,262.5 C 257.5,262.833 257.5,263.167 257.5,263.5C 244.989,263.171 232.655,263.505 220.5,264.5C 219.957,264.44 219.624,264.107 219.5,263.5C 232.149,262.501 244.816,262.168 257.5,262.5 Z"/></g>
<g><path style="opacity:0.883" fill="#f88c71" d="M 307.5,265.5 C 306.711,265.217 306.044,264.717 305.5,264C 289.503,263.5 273.503,263.333 257.5,263.5C 257.5,263.167 257.5,262.833 257.5,262.5C 268.183,262.679 278.85,262.346 289.5,261.5C 295.169,261.97 300.836,262.47 306.5,263C 307.252,263.671 307.586,264.504 307.5,265.5 Z"/></g>
<g><path style="opacity:1" fill="#ee4f2a" d="M 257.5,263.5 C 273.503,263.333 289.503,263.5 305.5,264C 306.044,264.717 306.711,265.217 307.5,265.5C 308.338,265.842 308.672,266.508 308.5,267.5C 308.427,269.027 309.094,270.027 310.5,270.5C 311.674,271.514 312.34,272.847 312.5,274.5C 312.427,276.027 313.094,277.027 314.5,277.5C 317.258,280.678 319.258,284.345 320.5,288.5C 320.427,290.027 321.094,291.027 322.5,291.5C 323.338,291.842 323.672,292.508 323.5,293.5C 323.427,295.027 324.094,296.027 325.5,296.5C 330.226,303.905 334.559,311.572 338.5,319.5C 338.427,321.027 339.094,322.027 340.5,322.5C 343.258,325.678 345.258,329.345 346.5,333.5C 346.5,334.833 345.833,335.5 344.5,335.5C 343.508,335.672 342.842,335.338 342.5,334.5C 342.027,333.094 341.027,332.427 339.5,332.5C 338.508,332.672 337.842,332.338 337.5,331.5C 337.027,330.094 336.027,329.427 334.5,329.5C 327.504,326.337 320.838,322.671 314.5,318.5C 314.027,317.094 313.027,316.427 311.5,316.5C 307.665,314.75 303.999,312.75 300.5,310.5C 300.027,309.094 299.027,308.427 297.5,308.5C 295.847,308.34 294.514,307.674 293.5,306.5C 293.027,305.094 292.027,304.427 290.5,304.5C 288.847,304.34 287.514,303.674 286.5,302.5C 286.027,301.094 285.027,300.427 283.5,300.5C 279.345,299.258 275.678,297.258 272.5,294.5C 272.027,293.094 271.027,292.427 269.5,292.5C 266.24,291.226 263.24,289.56 260.5,287.5C 260.027,286.094 259.027,285.427 257.5,285.5C 256.508,285.672 255.842,285.338 255.5,284.5C 255.027,283.094 254.027,282.427 252.5,282.5C 251.508,282.672 250.842,282.338 250.5,281.5C 250.027,280.094 249.027,279.427 247.5,279.5C 245.847,279.34 244.514,278.674 243.5,277.5C 243.027,276.094 242.027,275.427 240.5,275.5C 235.68,273.926 231.347,271.593 227.5,268.5C 227.027,267.094 226.027,266.427 224.5,266.5C 222.847,266.34 221.514,265.674 220.5,264.5C 232.655,263.505 244.989,263.171 257.5,263.5 Z"/></g>
<g><path style="opacity:0.424" fill="#fbb5a5" d="M 224.5,266.5 C 226.027,266.427 227.027,267.094 227.5,268.5C 225.973,268.573 224.973,267.906 224.5,266.5 Z"/></g>
<g><path style="opacity:0.388" fill="#fcbaaa" d="M 308.5,267.5 C 309.906,267.973 310.573,268.973 310.5,270.5C 309.094,270.027 308.427,269.027 308.5,267.5 Z"/></g>
<g><path style="opacity:0.396" fill="#fcb9a8" d="M 240.5,275.5 C 242.027,275.427 243.027,276.094 243.5,277.5C 241.973,277.573 240.973,276.906 240.5,275.5 Z"/></g>
<g><path style="opacity:0.416" fill="#fbb8a7" d="M 312.5,274.5 C 313.906,274.973 314.573,275.973 314.5,277.5C 313.094,277.027 312.427,276.027 312.5,274.5 Z"/></g>
<g><path style="opacity:0.451" fill="#fbb2a0" d="M 247.5,279.5 C 249.027,279.427 250.027,280.094 250.5,281.5C 248.973,281.573 247.973,280.906 247.5,279.5 Z"/></g>
<g><path style="opacity:0.427" fill="#fcb7a7" d="M 252.5,282.5 C 254.027,282.427 255.027,283.094 255.5,284.5C 253.973,284.573 252.973,283.906 252.5,282.5 Z"/></g>
<g><path style="opacity:0.353" fill="#fcc0b1" d="M 257.5,285.5 C 259.027,285.427 260.027,286.094 260.5,287.5C 258.973,287.573 257.973,286.906 257.5,285.5 Z"/></g>
<g><path style="opacity:0.49" fill="#fbae9b" d="M 320.5,288.5 C 321.906,288.973 322.573,289.973 322.5,291.5C 321.094,291.027 320.427,290.027 320.5,288.5 Z"/></g>
<g><path style="opacity:0.42" fill="#fbb5a4" d="M 269.5,292.5 C 271.027,292.427 272.027,293.094 272.5,294.5C 270.973,294.573 269.973,293.906 269.5,292.5 Z"/></g>
<g><path style="opacity:0.376" fill="#fcbcad" d="M 323.5,293.5 C 324.906,293.973 325.573,294.973 325.5,296.5C 324.094,296.027 323.427,295.027 323.5,293.5 Z"/></g>
<g><path style="opacity:0.365" fill="#fcbeaf" d="M 283.5,300.5 C 285.027,300.427 286.027,301.094 286.5,302.5C 284.973,302.573 283.973,301.906 283.5,300.5 Z"/></g>
<g><path style="opacity:0.4" fill="#fcb9a8" d="M 290.5,304.5 C 292.027,304.427 293.027,305.094 293.5,306.5C 291.973,306.573 290.973,305.906 290.5,304.5 Z"/></g>
<g><path style="opacity:0.404" fill="#fcb9a8" d="M 297.5,308.5 C 299.027,308.427 300.027,309.094 300.5,310.5C 298.973,310.573 297.973,309.906 297.5,308.5 Z"/></g>
<g><path style="opacity:0.325" fill="#fcc2b3" d="M 311.5,316.5 C 313.027,316.427 314.027,317.094 314.5,318.5C 312.973,318.573 311.973,317.906 311.5,316.5 Z"/></g>
<g><path style="opacity:0.38" fill="#fcbaaa" d="M 338.5,319.5 C 339.906,319.973 340.573,320.973 340.5,322.5C 339.094,322.027 338.427,321.027 338.5,319.5 Z"/></g>
<g><path style="opacity:0.329" fill="#fcc2b4" d="M 334.5,329.5 C 336.027,329.427 337.027,330.094 337.5,331.5C 335.973,331.573 334.973,330.906 334.5,329.5 Z"/></g>
<g><path style="opacity:0.314" fill="#fcc3b5" d="M 339.5,332.5 C 341.027,332.427 342.027,333.094 342.5,334.5C 340.973,334.573 339.973,333.906 339.5,332.5 Z"/></g>
<g><path style="opacity:0.816" fill="#fcb5a4" d="M 346.5,333.5 C 347.267,334.172 347.934,335.005 348.5,336C 346.934,336.765 345.601,336.598 344.5,335.5C 345.833,335.5 346.5,334.833 346.5,333.5 Z"/></g>
</svg>
